<svg xmlns="http://www.w3.org/2000/svg"  viewBox="0 0 64 64" width="512px" height="512px" baseProfile="basic"><ellipse cx="32" cy="61" opacity=".3" rx="20" ry="3"/><path fill="#98c900" d="M54,20v24c0,2.25-0.74,4.32-2,5.99V50c-1.69,2.24-4.29,3.75-7.25,3.97C44.51,53.99,44.25,54,44,54 H20c-5.52,0-10-4.48-10-10V20c0-0.25,0.01-0.51,0.03-0.75c0.22-2.96,1.73-5.56,3.97-7.25h0.01c1.67-1.26,3.74-2,5.99-2h24 C49.52,10,54,14.48,54,20z"/><path fill="#fff" d="M14.01,12H14c-2.24,1.69-3.75,4.29-3.97,7.25C10.01,19.49,10,19.75,10,20v12 c2.761,0,5-2.239,5-5v-7c0-0.108,0.003-0.221,0.017-0.38c0.102-1.375,0.778-2.65,1.862-3.525c0.048-0.033,0.095-0.068,0.142-0.103 C17.881,15.343,18.911,15,20,15h6c2.761,0,5-2.239,5-5H20C17.75,10,15.68,10.74,14.01,12z" opacity=".3"/><path d="M54,44V28c-2.761,0-5,2.238-5,5v11c0,2.757-2.243,5-5,5H33c-2.761,0-5,2.238-5,5h16 C49.523,54,54,49.523,54,44z" opacity=".15"/><path fill="none" stroke="#fff" stroke-linecap="round" stroke-linejoin="round" stroke-miterlimit="10" stroke-width="3" d="M13.5,23.5V20c0-0.153,0.005-0.312,0.018-0.459c0.135-1.809,1.003-3.46,2.396-4.594l0.204-0.152"/><path fill="#fff" d="M32,18c-8.284,0-15,5.701-15,12.734c0,4.009,2.185,7.582,5.597,9.916	c0.675,0.462,0.941,1.381,0.532,2.097c-0.003,0.004-0.005,0.009-0.008,0.014c-0.318,0.58-0.827,1.161-1.283,1.573l-0.208,0.188	c-0.166,0.15-0.272,0.368-0.278,0.613c-0.01,0.467,0.353,0.854,0.813,0.864c1.042,0.023,1.92-0.138,2.865-0.453	c0.926-0.314,1.823-0.785,2.667-1.374c0.218-0.157,0.432-0.323,0.642-0.495c0.363-0.297,0.823-0.432,1.285-0.369	c0.773,0.105,1.567,0.161,2.376,0.161c8.284,0,15-5.701,15-12.734S40.284,18,32,18z"/></svg>